<?xml version="1.0" encoding="utf-8"?>
<!-- Generator: Adobe Illustrator 24.2.3, SVG Export Plug-In . SVG Version: 6.00 Build 0)  -->
<svg version="1.1" id="レイヤー_1" xmlns="http://www.w3.org/2000/svg" xmlns:xlink="http://www.w3.org/1999/xlink" x="0px"
	 y="0px" viewBox="0 0 300 140" style="enable-background:new 0 0 300 140;" xml:space="preserve">
<style type="text/css">
	.st0{fill:#3C3835;}
</style>
<g>
	<g>
		<path class="st0" d="M-0.2,81.46c0.18-2.72,0.14-4.89,0.54-6.98c0.21-1.11,0.98-2.37,1.88-3.01c1.24-0.87,2.81-1.44,4.32-1.74
			c4.92-0.98,9.92-1.61,14.81-2.69c2.98-0.66,5.86-1.85,8.74-2.92c1.98-0.73,3.89-1.67,5.84-2.48c0.45-0.19,0.99-0.37,1.45-0.3
			c4.09,0.63,7.91-0.83,11.84-1.45c5.52-0.87,11.04-1.77,16.57-2.56c5.29-0.75,10.58-1.59,15.89-1.95c2.29-0.15,4.68,0.69,6.95,1.36
			c0.43,0.13,0.89,1.74,0.62,2.37c-1.7,4.04-3.52,8.03-5.43,11.98c-2.5,5.15-4.79,10.44-7.76,15.3
			c-5.7,9.34-11.49,18.68-17.88,27.55c-5.22,7.24-11.4,13.79-17.07,20.71c-0.95,1.16-1.62,1.28-2.74,0.37
			c-2.63-2.15-5.31-4.24-7.99-6.32c-2.28-1.78-4.63-3.49-6.87-5.32c-0.66-0.54-1.67-1.6-1.5-2.03c0.42-1.07,1.33-2.61,2.2-2.72
			c7.61-0.93,11.45-6.62,15.79-11.84c4.64-5.58,8.26-11.73,11.2-18.32c0.46-1.03,0.71-2.14,1.05-3.22c0.47-1.46-0.04-2.36-1.58-2.44
			c-1.11-0.06-2.3,0.01-3.36,0.33c-6.24,1.93-12.37,4.26-18.69,5.84c-4.96,1.24-9.85,2.47-14.48,4.68c-1.05,0.5-2.29,0.62-3.46,0.84
			c-5.39,1.01-9.74-3.67-10.42-7.97C-0.01,84.67-0.08,82.78-0.2,81.46z"/>
		<path class="st0" d="M181.25,81.49c-0.11,1.32-0.17,2.64-0.34,3.95c-0.42,3.27-3.68,6.47-7.02,6.51
			c-1.07,0.01-2.35-0.79-3.18-1.59c-1.31-1.25-2.33-2.81-3.48-4.24c-1-1.24-2.12-1.45-3.67-0.82c-4.35,1.75-8.58,3.72-13.12,5.11
			c-5.24,1.61-10.02,4.63-15.16,6.64c-6.37,2.5-11.94,6.77-18.77,8.28c-2.1,0.46-3.97,1.87-6.06,2.47
			c-0.97,0.28-2.41-0.05-3.23-0.66c-0.47-0.35-0.39-1.88-0.1-2.73c0.56-1.65,1-3.13,0.11-4.87c-0.35-0.69-0.18-1.98,0.26-2.69
			c2.68-4.3,3.78-9.1,4.99-13.94c1.33-5.35,3.32-10.54,5.07-15.78c0.85-2.56,1.68-5.14,2.73-7.61c1.6-3.75,3.48-7.38,5.07-11.14
			c1.59-3.75,2.94-7.61,4.46-11.39c0.34-0.83,0.86-1.68,1.53-2.27c1.32-1.18,2.51-0.95,3.92,0.28c1.62,1.4,3.63,2.35,5.48,3.47
			c1.34,0.81,2.73,1.55,4.03,2.43c0.26,0.18,0.3,0.85,0.25,1.27c-0.15,1.16-0.39,2.31-0.61,3.47c-0.13,0.67-0.14,1.43-0.46,2
			c-1.7,3.02-3.71,5.87-5.17,9c-2.14,4.6-3.91,9.37-5.8,14.09c-0.17,0.41-0.19,1.11,0.05,1.42c1.37,1.81,0.74,3.54,0.06,5.36
			c-0.2,0.54-0.19,1.65,0.08,1.78c0.54,0.27,1.43,0.27,2,0.01c4.05-1.86,7.97-4,12.09-5.69c2.77-1.13,5.79-1.62,8.67-2.48
			c2.95-0.88,3.23-1.6,1.94-4.34c-0.13-0.28-0.27-0.57-0.4-0.86c-1.28-2.79-0.42-4.33,2.6-4.95c1.14-0.23,2.41-0.61,3.24-1.36
			c2.45-2.2,5.3-2.13,8.19-1.73c0.71,0.1,1.68,0.96,1.9,1.66c1.19,3.9,2.01,7.93,3.31,11.79c0.82,2.44,1.51,5.03,3.65,6.91
			c0.74,0.64,0.81,2.04,1.19,3.09C181.45,81.41,181.35,81.45,181.25,81.49z"/>
		<path class="st0" d="M54.81,38.18c-4.96-0.14-9.71,1.01-14.5,2.1c-5.24,1.19-10.58,1.98-15.9,2.74
			c-4.11,0.59-7.98,1.79-11.62,3.73c-1.45,0.78-2.97,0.99-4.27-0.05c-1.3-1.03-1.32-2.62-0.62-3.98c1.63-3.15,0.59-6.42,0.62-9.64
			c0.01-1.25-0.14-2.51-0.28-3.76c-0.19-1.7-0.14-3.36-1.74-4.73c-1.74-1.5-0.92-3.87,1.47-4.42c3.12-0.71,6.32-1.06,9.45-1.71
			c4.17-0.86,8.29-1.99,12.48-2.77c4.94-0.92,9.91-1.64,14.88-2.35c4.78-0.69,9.58-1.27,14.37-1.9c0.25-0.03,0.56,0.04,0.74-0.08
			c4.87-3.23,10.55-0.82,15.73-2.26c2.93-0.81,3.87,0.54,4.06,3.59c0.19,3.26,0.63,6.5,0.94,9.75c0.41,4.31,0.35,8.57-1.75,12.51
			c-0.31,0.59-1.22,1.14-1.91,1.22c-5.25,0.56-10.52,1.01-15.78,1.48C59.07,37.83,56.94,38,54.81,38.18z"/>
		<path class="st0" d="M258.1,33.44c-0.92-0.25-1.5-0.33-2-0.57c-3.26-1.58-6.54-3.13-9.74-4.84c-1.77-0.94-3.32-2.29-5.08-3.24
			c-1.68-0.91-3.5-1.59-5.29-2.28c-3.32-1.3-6.68-2.51-10-3.82c-1.64-0.64-3.22-1.42-4.84-2.12c-2.5-1.08-3.17-3.59-1.3-5.54
			c3.17-3.3,6.4-6.56,9.75-9.68c0.7-0.66,2.2-1.18,3.02-0.88c5.94,2.14,12.09,3.98,17.58,6.98c4,2.19,7.85,4.66,12.06,6.51
			c1.66,0.72,3.14,1.85,4.72,2.76c0.97,0.56,1.07,1.14,0.49,2.14c-2.51,4.33-4.89,8.73-7.42,13.04
			C259.62,32.62,258.67,33.01,258.1,33.44z"/>
		<path class="st0" d="M246.2,133.78c-1.09-0.66-1.21-1.58-0.09-2.84c0.27,0.86,0.55,1.71,0.82,2.57
			C246.69,133.6,246.45,133.69,246.2,133.78z"/>
	</g>
	<path class="st0" d="M298.74,101.42c-1.31-1.59-2.88-2.97-4.34-4.44c-1.3-1.3-2.76-1.97-4.7-2.03c-1.21-0.04-2.56-0.74-3.55-1.52
		c-2.62-2.07-5.06-4.37-7.6-6.54c-1.78-1.52-3.62-2.95-5.41-4.45c-0.82-0.69-1.46-1.6-0.64-2.61c1.53-1.88,2.88-4.2,4.86-5.37
		c4.63-2.73,7.98-6.68,11.49-10.52c1.29-1.41,1.38-3.06,0.75-4.94c-0.52-1.56-0.7-3.3-0.68-4.96c0.04-2.64,0.43-5.26,0.57-7.9
		c0.1-2-0.86-3.25-2.79-3.67c-1.59-0.34-3.23-0.46-4.83-0.78c-3.2-0.63-6.38-1.31-9.57-1.99c-1.52-0.32-3.02-0.91-4.54-0.98
		c-5.16-0.23-10.34-0.31-15.51-0.38c-1.31-0.02-2.62,0.2-3.93,0.31c-2.75,0.22-5.49,0.47-8.24,0.66c-1.93,0.13-3.98-0.16-5.79,0.36
		c-5.21,1.49-10.52,1.83-15.87,2.1c-3.07,0.15-6.24,0.19-8.62,2.6c-0.62,0.63-1.37,1.48-1.41,2.26c-0.24,4.69,0.31,9.3,2.03,13.72
		c0.5,1.28,1.42,2,2.71,1.96c1.49-0.04,3.19,0.03,4.43-0.63c4.2-2.25,8.69-2.36,13.23-2.41c3.21-0.04,6.55,0.57,9.6-0.13
		c4.47-1.03,8.86-1.7,13.45-1.52c2.13,0.08,4.3-0.63,6.45-0.99c0.17,0.13,0.33,0.27,0.5,0.4c-0.33,0.67-0.51,1.48-1,1.99
		c-3.54,3.67-7.11,7.3-10.72,10.9c-2.18,2.18-4.35,4.38-6.69,6.38c-3.97,3.38-8.07,6.61-12.1,9.92c-0.43,0.36-0.77,0.83-1.16,1.24
		c-3.03,3.15-6.33,5.98-10.46,7.55c-2.02,0.77-3.38,1.82-3.91,3.93c-0.11,0.45-0.45,0.93-0.82,1.2c-1.86,1.38-3.73,2.76-5.68,4.02
		c-1.81,1.17-2.07,1.76-0.97,3.61c1.16,1.95,2.15,4.08,3.68,5.7c1.75,1.85,3.99,3.24,6.05,4.79c0.26,0.19,0.73,0.11,1.1,0.15
		c2.92,0.29,5.17-1.18,7.44-2.74c1.8-1.24,3.67-2.75,5.7-3.18c2.93-0.61,5.3-1.82,7.39-3.85c0.47-0.46,1.1-0.74,1.66-1.11
		c0.34,0.7,0.94,1.39,0.98,2.12c0.33,5.21,0.58,10.43,0.79,15.65c0.15,3.66,0.14,7.32,0.33,10.97c0.11,2.19,1.82,3.58,3.22,2.63
		c1.9-1.29,3.88-1.19,5.97-1.13c0.87,0.02,1.84-0.3,2.61-0.73c1.96-1.1,3.92-1.41,6.17-0.94c2.43,0.51,4.93,0.64,7.4,0.94
		c0.38-1.23,0.77-2.22,0.98-3.25c0.16-0.8,0.38-1.78,0.08-2.46c-3.32-7.73-4.45-15.82-4.23-24.15c0.02-0.68,0.34-1.36,0.66-2.54
		c2.23,1.47,4.1,2.69,5.95,3.94c3.66,2.47,7.27,5,10.98,7.38c0.76,0.49,1.86,0.64,2.8,0.6c1.17-0.04,1.96,0.23,2.39,1.35
		c0.16,0.41,0.34,0.82,0.57,1.19c1.24,2.03,2.09,2.05,3.39,0.07c0.27-0.41,0.47-0.88,0.71-1.32c0.81-1.47,1.57-2.98,2.46-4.4
		c1.49-2.39,3.07-4.72,4.6-7.09C300.2,104.61,299.94,102.88,298.74,101.42z"/>
</g>
</svg>
